<?xml version="1.0" encoding="utf-8"?>
<!-- Generator: Adobe Illustrator 26.0.3, SVG Export Plug-In . SVG Version: 6.00 Build 0)  -->
<svg version="1.1" id="Layer_1" xmlns="http://www.w3.org/2000/svg" xmlns:xlink="http://www.w3.org/1999/xlink" x="0px" y="0px"
	 viewBox="0 0 708.7 498.9" style="enable-background:new 0 0 708.7 498.9;" xml:space="preserve">
<style type="text/css">
	.st0{fill:#004186;}
	.st1{fill:url(#SVGID_1_);}
	.st2{fill:url(#SVGID_00000163785043469317047410000016772219023816313527_);}
	.st3{fill:url(#SVGID_00000003799980061696808310000012904260729440355753_);}
	.st4{fill:url(#SVGID_00000082339858308363002950000003492618889079100049_);}
	.st5{fill:#FFFFFF;}
</style>
<g id="Layer_1_00000040560999475009035450000009996275554665160338_">
	<rect x="-19.8" y="-20" class="st0" width="757.1" height="534.5"/>
</g>
<g>
	
		<linearGradient id="SVGID_1_" gradientUnits="userSpaceOnUse" x1="-90" y1="278.1166" x2="570.87" y2="278.1166" gradientTransform="matrix(1 0 0 -1 0 500)">
		<stop  offset="0" style="stop-color:#0081C8"/>
		<stop  offset="0.8603" style="stop-color:#0081C8;stop-opacity:0"/>
	</linearGradient>
	<path class="st1" d="M-90-209.7L487.6,714l83.2-133.1L38.6-270.2C38.6-270.2-85-209.7-90-209.7z"/>
	
		<linearGradient id="SVGID_00000109725308741296380510000005166012113353637527_" gradientUnits="userSpaceOnUse" x1="-27.6642" y1="424.9401" x2="476.0095" y2="424.9401" gradientTransform="matrix(1 0 0 -1 0 500)">
		<stop  offset="4.190000e-02" style="stop-color:#00ABD1"/>
		<stop  offset="0.8994" style="stop-color:#00ABD1;stop-opacity:0"/>
	</linearGradient>
	<path style="fill:url(#SVGID_00000109725308741296380510000005166012113353637527_);" d="M-27.7-253.9l440.2,704L476,348.7
		L70.4-300C70.4-300-23.8-253.9-27.7-253.9z"/>
	
		<linearGradient id="SVGID_00000111890088641597384940000016166074669627414709_" gradientUnits="userSpaceOnUse" x1="152.6699" y1="278.1923" x2="570.45" y2="278.1923" gradientTransform="matrix(1 0 0 -1 0 500)">
		<stop  offset="2.510000e-02" style="stop-color:#31BDB5"/>
		<stop  offset="0.9274" style="stop-color:#31BDB5;stop-opacity:0"/>
	</linearGradient>
	<path style="fill:url(#SVGID_00000111890088641597384940000016166074669627414709_);" d="M152.7-73l367.9,589.6l49.9-79.7
		L251.7-72.8C251.7-72.8,155.7-73,152.7-73z"/>
</g>
<g id="Layer_2_00000034080139833001278830000000462111528141122454_">
	
		<linearGradient id="SVGID_00000106854315107902462750000000913231516922840731_" gradientUnits="userSpaceOnUse" x1="46.1237" y1="148.2901" x2="555.7797" y2="442.542" gradientTransform="matrix(1 0 0 -1 0 500)">
		<stop  offset="0" style="stop-color:#004186;stop-opacity:0"/>
		<stop  offset="1" style="stop-color:#ED1C24"/>
	</linearGradient>
	<path style="fill:url(#SVGID_00000106854315107902462750000000913231516922840731_);" d="M95.7,437.6c0,0-11.2-194.4,184.9-262.6
		c0,0,139.6-48.5,249.7,45.3l65.6-93.4c0,0-155.6-143-349.6-39.1C25.8,218.4,95.7,437.6,95.7,437.6z"/>
	<path class="st5" d="M311.1,352.9c-4.4-8.2-5.5-27.1-3.2-56.5c2.2-29.4,9.2-68.3,20.9-116.7c0.4-1.7,0.9-3.6,1.4-5.6
		c1.5-5.2,2.8-10.4,3.7-15.7c1-5,0.8-10.1-0.6-14.9c-1.2-4.3-3.4-8.2-6.3-11.5c-3-3.1-7-5-11.3-5.4c-9.4-0.3-18.5,3.3-25.2,10
		c-6.6,6.6-12.1,14.3-16.2,22.8c-7.4,13.8-14.1,27.9-20.2,42.3c-6.1,14.4-12,28.9-17.7,43.5c-1.3-4.6-1.1-15.1,0.6-31.4
		s4.4-34.2,8.3-53.4c1.1-6.8-0.3-13.8-3.9-19.7c-1.5-2.7-4.2-5.2-8-7.6c-3.8-2.4-8.1-3.8-12.6-4.2c-4.6-0.4-8.5,1.3-11.9,4.9
		c-8.8,10.2-17.6,25.7-26.6,46.5c-9.7,22.9-18,46.2-25,70.1c0.7-4.6,1.7-11.1,3.2-19.4c1.5-8.3,3.1-17.4,5-27.1
		c1.8-9.6,3.5-18.6,5-27c1.5-8.4,2.6-14.8,3.2-19.4c0.6-4.3,0.8-8.7,0.8-13.1c0.1-4.3-0.6-8.6-2.2-12.6c-2.6-5-7-8.9-12.4-10.8
		c-5.6-2-11.4-3-17.3-3c-2.4-0.2-4.9,0.2-7.1,1.3c-1.1,0.5-1.9,1.4-2.4,2.5c-0.5,1.1-0.5,2.4,0,3.5c0.4,0.9,1.1,1.7,2,2.1
		c1,0.4,2,0.8,3,1.1c1.6,0.4,3.1,1.1,4.5,2.1c1.1,1.1,1.7,2.6,1.7,4.2c0.1,1.6-0.1,3.2-0.4,4.8c-1.4,7.5-3.1,15.8-5,25
		c-5,23.6-9.7,49.7-14.1,78.1s-6,54.8-4.8,79.2c0.2,3,0.9,6,1.9,8.8c1,2.8,2.8,5.2,5.1,7.1c3,1.9,6.6,2.5,10.1,1.7
		c3.6-0.8,6.9-2.6,9.5-5.2c2.4-2.6,4.4-5.7,5.7-9.1c1.3-3.4,2.5-6.8,3.6-10.2c5-16.4,10-31.2,14.8-44.5c3.6-10.3,7.5-21.8,11.7-34.5
		c5-15.9,10.8-31.4,17.5-46.7c0.5-1.2,1.2-2.8,2.1-4.8c1.9-5.1,4.4-10.9,7.5-17.2c3-6.3,6.4-10.6,10-13c0.9-0.5,2-0.8,3.1-0.8
		c-0.5,6.8-2,13.5-4.2,19.9c-0.3,1.2-0.7,2.4-1.1,3.7c-7.4,24.4-9.8,49.9-7.2,75.3c0.5,6.9,2.8,13.5,6.7,19.1c2.1,2.7,4.8,4.9,8,6.3
		c3.1,1.4,6.6,1.7,10,1c4.4-1.4,8-4.4,10.2-8.4c2.3-4,4.1-8.2,5.4-12.5c0.2-0.5,0.4-0.9,0.5-1.4c4.3-12.6,9.1-25,14.4-37.2
		c10.6-24.3,23.3-47.7,38.2-69.7c0.3,4.4-0.3,8.7-1.8,12.9c-0.2,1-0.4,1.9-0.6,2.7c-10.4,41-17.1,75.5-20.3,103.6
		s-2.1,50.9,3.1,68.4c1.7,5.9,4.6,11.5,8.5,16.2c3.5,4.2,8.4,7.1,13.8,8.2c1.1,0.2,2.3,0.2,3.5,0.1c1.1-0.1,2.1-0.7,2.8-1.5
		c0.5-1.1,0.7-2.3,0.3-3.5C312.2,355.1,311.8,353.9,311.1,352.9z"/>
	<path class="st5" d="M444.8,244c0.7-0.3,1.4-0.6,2.1-1c2-0.8,3.8-2.1,5.3-3.7c1.4-1.4,2.1-3.4,1.9-5.5c-0.2-0.5-1.3-0.7-3.3-0.6
		s-4.3,0.4-7,0.7c-2.2,0.4-4.5,0.7-6.7,0.8c0.1-8.2,0.6-16.4,1.5-24.6c0.2-2.7,0.5-5.4,0.8-8c1.8-15.1,2.5-30.2,2.1-45.4
		c0-1-0.1-1.9-0.1-2.9c-0.1-6.3-0.6-12.5-1.4-18.7c-0.6-5.6-2.2-11.1-4.7-16.2c-2.2-4.4-6.3-7.5-11.1-8.4c-4.7-0.8-9.5,0.2-13.5,2.8
		c-3.7,2.4-6.8,5.5-9.4,9.1c-1.8,2.4-3.4,4.9-4.9,7.5v0.2c-11.3,20.2-21.4,41-30.3,62.3c-9,21.3-16.3,43.2-21.7,65.6
		c-0.4,1.8-0.9,3.6-1.8,5.2c-0.9,1.8-2.3,3.3-4,4.3c-4,1.9-8,3.7-12,5.5l-6.1,2.6c-2,0.9-4,1.9-5.8,3.1c-1.8,1.2-3.2,2.9-4,4.9
		c-1,3-0.3,6.2,1.7,8.6c2,2.5,4.8,4.3,7.9,4.9c3.1,0.5,6.2,0.4,9.2-0.5c3-0.9,6-1.9,8.9-3.2c-0.7,8.9-1.4,17.8-2.1,26.6
		c-0.1,1-0.1,1.9,0.2,2.9c0.1,0.9,0.8,1.6,1.6,1.8c0.7,0.2,1.4,0.2,2.1-0.2c3.2-1.2,5.6-3.8,6.7-7.1c1.3-3.4,2-7,2.2-10.6
		c0.4-3.7,0.9-7.5,1.3-11.2c0-0.6,0.1-1.3,0.2-1.9c0.1-2.1,0.7-4.2,1.8-6.1c1.3-1.7,3.1-3.1,5.1-3.9c16.8-8.4,34.3-15.4,52.3-20.7
		v0.3c-0.7,14.5-0.8,29.1-0.2,43.6c0.6,14.4,3.1,28.7,7.4,42.5c0.9,3.6,2.8,6.8,5.5,9.3c1.4,1.2,3.2,1.9,5,2
		c1.8,0.2,3.6-0.4,4.9-1.7c1.1-1.3,1.7-2.8,1.8-4.4c0.2-1.7,0.2-3.4,0.1-5c-2.8-31-2.7-62.1,0.2-93.1c0-2.5,0.6-4.9,1.8-7.1
		c0.9-1.4,2.2-2.5,3.7-3.3C441.5,245.4,443.1,244.6,444.8,244z M418.4,185.2c-1,12.8-2.2,24.3-3.5,34.4c-0.2,1.7-0.4,3.6-0.5,5.6
		c0.1,4.9-0.7,9.7-2.4,14.3c-0.6,1.3-1.6,2.3-2.9,2.9c-1.3,0.7-2.7,1.2-4.2,1.6l-2.2,0.6c-2.2,0.9-6.2,2.2-12,4.1l-17.4,5.7
		c-5.1,1.7-9,3-11.7,3.8c-0.5-0.4-0.9-0.9-1-1.5c-0.1-0.6-0.1-1.1,0.2-1.7c0.5-2.6,3.1-10.7,7.9-24.3s11.6-31.1,20.7-52.2l1-2.2
		c4.6-10.9,9.8-21.5,15.7-31.8c0.8-1.4,1.8-2.7,2.8-3.9c1.3-1.6,2.7-3.1,4.2-4.4c1.4-1.3,2.5-1.8,3.3-1.6c2,1.3,3.1,6.8,3.3,16.7
		C419.8,161.1,419.4,172.4,418.4,185.2L418.4,185.2z"/>
	<path class="st5" d="M634.1,81.3c-0.5-2.4-1.5-4.8-2.9-6.8c-1.6-2.3-3.7-4.2-6.2-5.6c-3.2-1.6-6.7-2.3-10.2-2.1
		c-2.3,0.1-4.5,0.8-6.4,2c-2.3,1.3-4.5,2.7-6.5,4.3c-1.6,1.2-3,2.5-4.4,3.9c-3.2,3.2-6.2,6.7-8.8,10.4c-1.8,2.4-5.3,6.5-10.4,12.2
		c-5.2,5.8-10.2,11.4-15.2,16.8c-4.9,5.4-8.1,8.7-9.3,10l-1.6,1.5c-1.1,0.8-2.1,1.8-2.8,3c-0.2,0.6-0.1,1.3,0.3,1.8
		c0.4,0.4,0.6,1.1,0.5,1.7c-0.1,0.3-0.4,0.5-0.6,0.7c-0.2,0.2-0.4,0.5-0.5,0.7c-0.1,0.1-0.1,0.3,0.1,0.5c0.2,0.2,0.4,0.4,0.7,0.4
		c0.3,0.1,0.5,0.1,0.8,0.1c0.5,0,1-0.2,1.4-0.4c0.4-0.2,0.8-0.4,1.1-0.7l0.3-0.1c1.2-0.8,2.3-1.8,3.3-2.8c0.3-0.3,0.6-0.6,1-1
		c0.1,0,0.2-0.1,0.2-0.1l0.3-0.1c1.3-1.2,4.1-3.9,8.4-8c4.3-4.1,8.6-8.2,12.8-12.3l-16.2,24.1c-0.5,0.6-1.1,1.3-1.7,2.1
		c-3.2,4.5-6.4,9.1-9.5,13.8c-1.4,2.1-2.8,4.3-4.3,6.6c-7.4,10.8-14.6,21.7-21.7,32.7c-4.9,7.5-9.6,14.8-14.1,21.8
		c-6.7-18.8-12.8-37.9-18.3-57.1c-0.7-2.8-1.5-5.5-2.4-8.2c-0.4-1.4-0.8-2.7-1.1-4c-1.4-5.8-3.5-11.4-6.4-16.6
		c-2.8-5-7.6-8.2-14.6-9.6c-1.4-0.4-2.9-0.3-4.2,0.3c-1.4,0.7-2.3,2-2.6,3.5c-0.3,1.6-0.4,3.3-0.2,5c2.2,19.7,6.1,39.1,11.7,58.1
		c5.7,19.2,12.5,38.2,20.3,56.6c-17.1,27.7-34.1,57.9-51.1,90.5c-2.9,5.9-3.9,10.7-3,14.4s2.7,5.7,5.4,5.9c4.6,0.1,9.2-0.8,13.3-2.9
		c3.6-1.9,5.9-3.7,6.7-5.5c0.4-0.5,0.3-0.9-0.5-1.1c-1.6-0.3-3.2-0.5-4.8-0.5c-0.8,0-1.3-0.6-1.7-1.9s-0.1-3.4,0.9-6.4
		s3-7.3,6.3-12.8c12.3-20.3,24.8-40.1,37.5-59.4c2.6,5.7,5.1,11.3,7.7,16.9c7.6,16.4,16.7,32,27.4,46.6
		c11.2,15.6,23.4,26.9,36.7,33.9c0.2,0.2,0.4,0.3,0.7,0.3c1.3,0.7,2.7,1.3,4.2,1.8c1.3,0.5,2.7,0.5,4,0c1-0.5,1.6-1.4,1.5-2.5
		c-0.1-1.1-0.4-2.2-1-3.2c-0.5-1-1.1-2-1.8-3c-0.3-0.4-0.6-0.8-0.8-1.1c-11.8-18.5-22.9-37.5-33.1-57.1h-0.2
		c-9.7-18.7-18.7-37.8-27-57.3l-0.3-0.6c-0.1-0.2-0.2-0.4-0.3-0.6c1-1.4,1.9-2.7,2.7-4c1.6-2.5,3.3-4.9,5-7.4
		c6.3-8.8,12.8-17.5,19.5-26.2c5.9-7.4,11.5-15,16.9-22.7l0.5,0.4l19-27.8c0,0,14.4-19.7,25.1-35.4c-0.5,2.5-0.9,4.9-1.3,7.4
		c-0.1,1-0.2,1.9-0.4,2.9c-0.1,1.3,0.8,2.5,2.8,3.5c3.2,1.6,6.6,2.7,10.2,3.5c2.7,0.5,4.6,0.5,5.9,0c1.2-0.5,2.2-1.5,2.5-2.8
		c3.3-9,5.4-18.3,6-27.9c0-0.2,0-0.5,0-0.7C635.6,92.4,635.3,86.8,634.1,81.3z"/>
	<path class="st5" d="M94.7,437.6h-4.8l18.7-43.2h4.3l18.5,43.2h-4.9l-4.8-11.4H99.3L94.7,437.6z M101,422.3h19l-9.5-22.9L101,422.3
		z"/>
	<path class="st5" d="M178.4,430.7c-2.9,4.3-8.4,8-16.2,8c-13.1,0-22.5-9.6-22.5-22.7s9.6-22.7,22.5-22.7c6.3,0,12.4,2.6,15.4,6.8
		l-3.7,2.7c-1.8-2.8-6.2-5.7-11.6-5.7c-11.2,0-17.9,8.8-17.9,18.9s6.8,18.9,17.9,18.9c5.1,0.2,9.9-2.2,12.7-6.4L178.4,430.7z"/>
	<path class="st5" d="M227.2,430.7c-2.9,4.3-8.4,8-16.2,8c-13.1,0-22.5-9.6-22.5-22.7s9.6-22.7,22.5-22.7c6.4,0,12.4,2.6,15.4,6.8
		l-3.7,2.7c-1.8-2.8-6.2-5.7-11.7-5.7c-11.2,0-17.9,8.8-17.9,18.9s6.8,18.9,17.9,18.9c5,0.2,9.8-2.2,12.7-6.4L227.2,430.7z"/>
	<path class="st5" d="M259.9,438.7c-12.9,0-22.5-9.6-22.5-22.7s9.6-22.7,22.5-22.7s22.5,9.6,22.5,22.7S272.8,438.7,259.9,438.7z
		 M259.9,397.2c-11.1,0-17.9,8.8-17.9,18.8s6.8,18.8,17.9,18.8c11.1,0,17.9-8.7,17.9-18.8S271,397.2,259.9,397.2L259.9,397.2z"/>
	<path class="st5" d="M297.6,421.5v-27.1h4.4V421c0,7,3,13.8,11.8,13.8s11.7-6.8,11.7-13.8v-26.6h4.4v27.1c0,7.2-3.2,17.2-16.2,17.2
		S297.6,428.7,297.6,421.5z"/>
	<path class="st5" d="M378.2,431.2h0.1v-36.8h4.4v43.2h-5.5l-25.1-37.1H352v37.1h-4.4v-43.2h5.5L378.2,431.2z"/>
	<path class="st5" d="M414.6,437.6h-4.4v-39.3h-14.5v-3.9h33.3v3.9h-14.5V437.6z"/>
	<path class="st5" d="M472.4,437.6h-6.5l-5.1-13.3h-18.3l-4.8,13.3h-6.1l16.8-43.6h6.2L472.4,437.6z M459.1,419.8l-7.7-20.2
		l-7.3,20.2H459.1z"/>
	<path class="st5" d="M518.3,437.6h-5.9l-22.9-34.5v34.5h-5.5V394h5.9l22.9,34.5V394h5.5L518.3,437.6z"/>
	<path class="st5" d="M553.1,438.4c-6.2,0-11.1-2-14.8-6.1c-3.7-4.1-5.5-9.6-5.5-16.5c0-6.9,1.8-12.4,5.5-16.5
		c3.7-4.1,8.6-6.1,14.8-6.1c4.4-0.1,8.6,1.2,12.1,3.8c3.3,2.4,5.3,6.1,5.6,10.1h-6c-0.2-2.6-1.5-5-3.6-6.6c-5.9-3.9-13.8-3-18.7,2.1
		c-2.6,3.1-3.9,7.4-3.9,13.1c0,5.7,1.3,10,3.8,13c4.9,5.2,12.8,6.1,18.7,2.1c2.2-1.8,3.5-4.4,3.6-7.1h6c-0.4,4.7-2.2,8.3-5.5,10.8
		C561.9,437.2,557.5,438.5,553.1,438.4z"/>
	<path class="st5" d="M618.8,394l-17.2,25.2v18.5h-5.8v-18.5L578.7,394h7l13,20.1l13-20.1H618.8z"/>
</g>
</svg>
